# xmcd CD database file
#
# Track frame offsets:
#	150
#	15744
#	34147
#
# Disc length: 654 seconds
#
# Revision: 0
# Processed by: cddbd v1.5.2PL0 Copyright (c) Steve Scherf et al.
# Submitted via: CDex 1.51
#
DISCID=1b028c03
DTITLE=Simple Plan - Welcome to my Life
DYEAR=1900
DGENRE=New Age
TTITLE0=Welcome to my Life
TTITLE1=Addicted (Live)
TTITLE2=Worst day ever (Live)
EXTD=
EXTT0=
EXTT1=
EXTT2=
PLAYORDER=
